<svg xmlns="http://www.w3.org/2000/svg" width="146" height="44.49" viewBox="0 0 146 44.49"><g transform="translate(0 0)"><g transform="translate(0 0)"><path d="M134.374,0H11.633c-.447,0-.889,0-1.336,0-.374,0-.744.009-1.121.014a17.647,17.647,0,0,0-2.445.2,8.692,8.692,0,0,0-2.319.7A7.867,7.867,0,0,0,2.437,2.221,7.028,7.028,0,0,0,1,4.024,6.9,6.9,0,0,0,.237,6.141,13.21,13.21,0,0,0,.018,8.368C.007,8.709.006,9.051,0,9.392V35.1c.006.345.007.68.018,1.025a13.209,13.209,0,0,0,.219,2.227A6.885,6.885,0,0,0,1,40.471a6.975,6.975,0,0,0,1.438,1.8,7.667,7.667,0,0,0,1.975,1.311,8.736,8.736,0,0,0,2.319.7,17.966,17.966,0,0,0,2.445.2c.377.008.748.012,1.121.012.446,0,.888,0,1.336,0h122.74c.438,0,.884,0,1.323,0,.372,0,.753,0,1.125-.012a17.731,17.731,0,0,0,2.44-.2,8.873,8.873,0,0,0,2.328-.7,7.67,7.67,0,0,0,1.973-1.311,7.188,7.188,0,0,0,1.442-1.8,6.9,6.9,0,0,0,.755-2.118,13.735,13.735,0,0,0,.226-2.227c0-.345,0-.68,0-1.025.01-.4.01-.806.01-1.217V10.607c0-.407,0-.811-.01-1.214,0-.341,0-.683,0-1.024a13.733,13.733,0,0,0-.226-2.227A6.913,6.913,0,0,0,145,4.024,7.577,7.577,0,0,0,141.589.91a8.828,8.828,0,0,0-2.328-.7,17.418,17.418,0,0,0-2.44-.2C136.449.011,136.068,0,135.7,0c-.438,0-.884,0-1.323,0Z" transform="translate(0 0)" fill="#a6a6a6"/><path d="M10.111,43.419c-.372,0-.734,0-1.1-.012a16.944,16.944,0,0,1-2.28-.181,7.673,7.673,0,0,1-2.021-.609A6.607,6.607,0,0,1,3,41.485a6,6,0,0,1-1.908-3.4A12.62,12.62,0,0,1,.891,36c-.008-.235-.018-1.016-.018-1.016V9.294S.884,8.525.891,8.3a12.576,12.576,0,0,1,.2-2.082,6.046,6.046,0,0,1,1.9-3.4A6.8,6.8,0,0,1,4.705,1.676a7.6,7.6,0,0,1,2.017-.6A16.808,16.808,0,0,1,9.011.889l1.1-.014H135.5l1.114.014a16.54,16.54,0,0,1,2.267.181,7.747,7.747,0,0,1,2.039.609,6.554,6.554,0,0,1,2.947,2.692,6.02,6.02,0,0,1,.653,1.834,13.213,13.213,0,0,1,.212,2.1c0,.315,0,.653,0,.99.01.417.01.814.01,1.214V33.786c0,.4,0,.8-.01,1.2,0,.362,0,.693,0,1.034a12.946,12.946,0,0,1-.209,2.062,5.993,5.993,0,0,1-.659,1.857,6.16,6.16,0,0,1-1.239,1.541,6.612,6.612,0,0,1-1.707,1.137,7.645,7.645,0,0,1-2.035.612,16.749,16.749,0,0,1-2.281.181c-.357.008-.732.012-1.095.012l-1.323,0Z" transform="translate(0.192 0.098)"/><g transform="translate(12.166 9.699)"><path d="M28.025,21.011A5.424,5.424,0,0,1,30.9,16.393a6.359,6.359,0,0,0-4.87-2.4c-2.049-.2-4.035,1.118-5.079,1.118-1.064,0-2.672-1.1-4.4-1.066a6.591,6.591,0,0,0-5.457,3.034c-2.36,3.724-.6,9.2,1.661,12.208,1.131,1.474,2.453,3.121,4.182,3.062,1.692-.064,2.324-.984,4.367-.984,2.024,0,2.617.984,4.381.947,1.816-.027,2.96-1.481,4.051-2.969a11.788,11.788,0,0,0,1.853-3.44,5.334,5.334,0,0,1-3.562-4.893Z" transform="translate(-9.972 -8.131)" fill="#fff"/><path d="M22.752,12.6a5.11,5.11,0,0,0,1.36-3.882A6.259,6.259,0,0,0,20.2,10.566,4.878,4.878,0,0,0,18.8,14.3a5.2,5.2,0,0,0,3.949-1.7Z" transform="translate(-8.031 -8.72)" fill="#fff"/><g transform="translate(29.838 10.178)"><path d="M44.035,28.157H38.26L36.873,31.89H34.427L39.9,18.078h2.541l5.47,13.812H45.421Zm-5.177-1.723h4.578l-2.257-6.059h-.063Z" transform="translate(-34.427 -17.848)" fill="#fff"/><path d="M57.037,26.489c0,3.129-1.837,5.14-4.61,5.14a3.834,3.834,0,0,1-3.476-1.762H48.9v4.988H46.631v-13.4h2.195v1.675h.042a4.015,4.015,0,0,1,3.517-1.78C55.189,21.348,57.037,23.368,57.037,26.489Zm-2.331,0c0-2.039-1.156-3.379-2.919-3.379-1.732,0-2.9,1.369-2.9,3.379,0,2.029,1.165,3.388,2.9,3.388,1.763,0,2.919-1.331,2.919-3.388Z" transform="translate(-31.741 -17.481)" fill="#fff"/><path d="M67,26.489c0,3.129-1.837,5.14-4.61,5.14a3.834,3.834,0,0,1-3.476-1.762h-.052v4.988H56.6v-13.4h2.195v1.675h.042a4.015,4.015,0,0,1,3.517-1.78C65.153,21.348,67,23.368,67,26.489Zm-2.331,0c0-2.039-1.156-3.379-2.919-3.379-1.732,0-2.9,1.369-2.9,3.379,0,2.029,1.165,3.388,2.9,3.388,1.763,0,2.919-1.331,2.919-3.388Z" transform="translate(-29.548 -17.481)" fill="#fff"/><path d="M72.129,28.065c.168,1.37,1.628,2.269,3.622,2.269,1.911,0,3.286-.9,3.286-2.134,0-1.072-.829-1.714-2.793-2.154l-1.964-.431c-2.782-.613-4.074-1.8-4.074-3.723,0-2.383,2.278-4.02,5.513-4.02,3.2,0,5.4,1.637,5.47,4.02H78.9c-.137-1.378-1.387-2.21-3.213-2.21s-3.076.842-3.076,2.067c0,.976.8,1.551,2.751,1.991l1.669.374c3.109.67,4.4,1.809,4.4,3.829,0,2.584-2.258,4.2-5.849,4.2-3.36,0-5.629-1.58-5.775-4.079Z" transform="translate(-26.641 -17.871)" fill="#fff"/><path d="M84.047,19.3v2.383h2.1V23.32h-2.1v5.551c0,.862.421,1.264,1.344,1.264q.374-.006.746-.048v1.627a6.815,6.815,0,0,1-1.259.1c-2.236,0-3.109-.766-3.109-2.719V23.32H80.163V21.683h1.606V19.3Z" transform="translate(-24.362 -17.711)" fill="#fff"/><path d="M86.065,26.49a5.24,5.24,0,0,1,10.479,0c0,3.177-2.027,5.159-5.24,5.159S86.065,29.668,86.065,26.49Zm8.169,0c0-2.173-1.093-3.456-2.93-3.456s-2.929,1.293-2.929,3.456c0,2.182,1.091,3.455,2.929,3.455s2.93-1.273,2.93-3.455Z" transform="translate(-23.063 -17.483)" fill="#fff"/><path d="M96.186,21.453h2.163v1.714H98.4a2.611,2.611,0,0,1,2.657-1.819,3.823,3.823,0,0,1,.777.077v1.933a3.458,3.458,0,0,0-1.019-.125,2.4,2.4,0,0,0-1.766.663,1.969,1.969,0,0,0-.6,1.654v5.973H96.186Z" transform="translate(-20.835 -17.481)" fill="#fff"/><path d="M111.181,28.567c-.305,1.828-2.258,3.083-4.756,3.083-3.213,0-5.208-1.963-5.208-5.112a4.837,4.837,0,0,1,5.113-5.207,4.626,4.626,0,0,1,4.978,4.967v.708h-7.8v.125a2.487,2.487,0,0,0,.78,2.038,3.025,3.025,0,0,0,2.192.815,2.532,2.532,0,0,0,2.551-1.416Zm-7.665-3.005h5.523a2.3,2.3,0,0,0-.742-1.818,2.792,2.792,0,0,0-1.967-.738,2.942,2.942,0,0,0-1.991.744,2.44,2.44,0,0,0-.822,1.812Z" transform="translate(-19.728 -17.483)" fill="#fff"/></g></g></g><g transform="translate(43.521 9.18)"><path d="M38.522,8.731a2.422,2.422,0,0,1,1.741.619,1.994,1.994,0,0,1,.66,1.593,2.014,2.014,0,0,1-.688,1.585,2.443,2.443,0,0,1-1.749.6H36.8v2.235H35.671V8.731Zm-1.721,3.5h1.423c.973,0,1.544-.46,1.544-1.283,0-.842-.55-1.3-1.544-1.3H36.8Z" transform="translate(-35.671 -8.2)" fill="#fff"/><path d="M40.844,12.707a2.313,2.313,0,0,1,1.219-2.242,2.819,2.819,0,0,1,2.745,0,2.313,2.313,0,0,1,1.219,2.242,2.313,2.313,0,0,1-1.217,2.246,2.819,2.819,0,0,1-2.748,0,2.313,2.313,0,0,1-1.217-2.246Zm4.067,0c0-1.086-.535-1.721-1.474-1.721s-1.473.635-1.473,1.721.53,1.724,1.473,1.724S44.911,13.8,44.911,12.707Z" transform="translate(-34.535 -8.045)" fill="#fff"/><path d="M47.447,14.609h-.081V15.4H46.322V8.437h1.084v2.751h.086a1.863,1.863,0,0,1,1.691-.879c1.392,0,2.27.993,2.27,2.585s-.883,2.589-2.27,2.589A1.949,1.949,0,0,1,47.447,14.609ZM47.386,12.9c.006,1.049.571,1.7,1.483,1.7s1.468-.639,1.468-1.7-.549-1.7-1.468-1.7-1.478.653-1.483,1.7Z" transform="translate(-33.327 -8.233)" fill="#fff"/><path d="M51.6,8.932a.635.635,0,0,1,.4-.618.755.755,0,0,1,.779.114.6.6,0,0,1,.172.7.76.76,0,0,1-1.144.24.585.585,0,0,1-.21-.438Zm.161,1.481h1.081v5.008H51.766Z" transform="translate(-32.165 -8.253)" fill="#fff"/><path d="M58.755,13.861a2.237,2.237,0,0,1-2.381,1.449,2.614,2.614,0,0,1-1.925-.757,2.144,2.144,0,0,1-.613-1.828,2.176,2.176,0,0,1,.612-1.835,2.649,2.649,0,0,1,1.921-.781,2.293,2.293,0,0,1,2.451,2.525v.345h-3.88v.055a1.254,1.254,0,0,0,.383,1.012,1.522,1.522,0,0,0,1.08.422,1.357,1.357,0,0,0,1.307-.607Zm-3.814-1.614h2.775a1.147,1.147,0,0,0-.361-.922,1.392,1.392,0,0,0-.991-.376,1.478,1.478,0,0,0-1.011.375,1.225,1.225,0,0,0-.411.922Z" transform="translate(-31.678 -8.045)" fill="#fff"/><path d="M59.11,10.2h1.044v.768h.081a1.505,1.505,0,0,1,1.483-.851,2.494,2.494,0,0,1,.484.041v.975a3.247,3.247,0,0,0-.605-.06,1.367,1.367,0,0,0-.987.306,1.128,1.128,0,0,0-.415.872v2.957H59.11Z" transform="translate(-30.512 -8.044)" fill="#fff"/><path d="M62.523,14.532l3.022-3.422v-.078h-3v-.837h4.3v.722l-2.957,3.371v.078h2.988V15.2H62.523Z" transform="translate(-29.761 -8.035)" fill="#fff"/><path d="M75.571,15.2H74.447l-1.135-3.689h-.086L72.095,15.2H70.981l-1.514-5.008h1.1l.984,3.822h.081l1.13-3.822H73.8l1.13,3.822h.086L76,10.195H77.08Z" transform="translate(-28.233 -8.035)" fill="#fff"/></g></g></svg>