<svg xmlns="http://www.w3.org/2000/svg" width="254" height="438" viewBox="0 0 254 438"><path d="M127,438a15.691,15.691,0,0,1-13.22-7.305l-51.467-78L127,315.314l64.685,37.38-51.467,78A15.691,15.691,0,0,1,127,438ZM54.771,341.266l0,0L21.214,290.41c-.637-.966-1.273-1.959-1.888-2.952l66.219-38.279L117.687,304.9,54.775,341.264Zm144.458,0,0,0L136.314,304.9l32.139-55.722,66.222,38.275c-.651,1.049-1.288,2.042-1.891,2.956L199.232,341.26ZM127,293.781l0-.007L93.917,236.421a6.774,6.774,0,0,0-9.275-2.5L12.755,275.466A131.006,131.006,0,0,1,.268,210.587a129.422,129.422,0,0,1,20.946-62.992L113.781,7.305a15.615,15.615,0,0,1,26.44,0l92.563,140.29a129.409,129.409,0,0,1,20.949,62.992,130.992,130.992,0,0,1-12.489,64.88l-71.88-41.547a6.774,6.774,0,0,0-9.275,2.5l-33.082,57.353Zm0-217.36a6.783,6.783,0,0,0-4.462,1.675l-1.51,1.367c-1.273,1.19-3.35,3.2-6.009,6A178.105,178.105,0,0,0,98.86,105.12C83.028,127.475,75,149.787,75,171.435c0,21.975,8.213,42.044,24.411,59.647a112.2,112.2,0,0,0,16.541,14.737c2.189,1.595,4.245,2.982,6.111,4.123a6.781,6.781,0,0,0,9.883,0c1.864-1.139,3.919-2.525,6.107-4.119a112.526,112.526,0,0,0,16.541-14.737C170.79,213.473,179,193.405,179,171.435c0-21.639-8.028-43.951-23.86-66.316a178.348,178.348,0,0,0-16.157-19.652l-2.56-2.644c-1.888-1.9-3.65-3.578-4.96-4.726A6.784,6.784,0,0,0,127,76.421Zm-6.8,155.458-.007-.006A99.445,99.445,0,0,1,109.4,221.786c-13.685-14.874-20.68-31.668-20.79-49.915a7.132,7.132,0,0,0,.816,1.4L120.2,214.108v17.772Zm13.61,0V213.861a6.9,6.9,0,0,0,0-3.507V181.96l21.868-31.643.347-.558a6.842,6.842,0,0,0-2.049-8.968A6.781,6.781,0,0,0,144.5,142.5l-10.7,15.476V122.05l-.033-.661a6.8,6.8,0,0,0-13.577.661v69.4L100.265,165l-.42-.505a6.8,6.8,0,0,0-5.005-2.2,6.717,6.717,0,0,0-4.106,1.392,6.822,6.822,0,0,0-1.927,2.291c1.253-17.077,8.368-34.877,21.137-52.909A165.116,165.116,0,0,1,124.86,94.92L127,92.711l.082.082c.573.58,1.19,1.219,2.061,2.127a165.435,165.435,0,0,1,14.912,18.141c14.156,19.988,21.333,39.628,21.333,58.374,0,18.419-6.994,35.36-20.786,50.351a98.3,98.3,0,0,1-10.79,10.083Z" transform="translate(0 0)" fill="#a9804a" opacity="0.18"/></svg>