<svg xmlns="http://www.w3.org/2000/svg" width="254" height="438" viewBox="0 0 254 438"><path d="M127,438a15.7,15.7,0,0,1-13.224-7.3L56.13,343.323c12.7,12.324,38.526,19.4,70.874,19.4l1.87-.008c31.424-.267,56.571-7.329,68.992-19.375L140.223,430.7A15.686,15.686,0,0,1,127,438Zm0-88.967c-28.458,0-52.1-6.107-61.7-15.936.3.055.606.105.972.164l2.172.357a69.237,69.237,0,0,0,10.123.735c1.839,0,3.705-.072,5.545-.214A70.827,70.827,0,0,0,127,314.823a70.648,70.648,0,0,0,42.873,19.316c1.808.155,3.673.234,5.544.234a70.578,70.578,0,0,0,12.533-1.146c.253-.041.5-.082.747-.127C179.1,342.931,155.453,349.033,127,349.033ZM48.777,332.179l-4.159-6.3c.948.493,1.961.994,3.016,1.485a24.909,24.909,0,0,0,1.151,4.815Zm156.46-.015-.008,0a24.941,24.941,0,0,0,1.141-4.759c.979-.456,1.981-.95,2.981-1.471ZM175.4,320.683c-1.487,0-2.971-.062-4.409-.185a57.159,57.159,0,0,1-33.051-14.167L174.653,269.4l45.372-.218.653-.033a6.846,6.846,0,0,0-.688-13.653h-.03l-31.634.152,18.154-18.265c.021-.019.041-.039.06-.059l.03-.031,26.262-26.416.465-.517a6.856,6.856,0,0,0-.465-9.161,6.775,6.775,0,0,0-9.622,0l-14.6,14.688.045-8.258-.029-.661a6.787,6.787,0,0,0-6.736-6.221h-.038a6.838,6.838,0,0,0-6.8,6.8l-.118,22.1L167.044,257.7c-.014.012-.028.026-.041.039s-.026.027-.041.039l-38.129,38.357a57.275,57.275,0,0,1-9.6-43.091c.306-1.74.626-3.215.98-4.509l.282-.99a63.215,63.215,0,0,1,11.827-23.028l.061-.08.061-.08a73.921,73.921,0,0,1,5.723-6.455c8.247-8.3,18.908-15.558,31.687-21.587,16.872-7.98,37.152-13.9,60.276-17.6,5.834-.925,11.49-1.695,16.811-2.287a132.115,132.115,0,0,1,5.8,60.792c-.768,3.222-1.616,6.431-2.52,9.535A153.551,153.551,0,0,1,242,268.829c-6.086,12.942-13.325,23.685-21.514,31.93a68.35,68.35,0,0,1-22.22,15.267,6.657,6.657,0,0,0-1.9.747,60.717,60.717,0,0,1-7.81,2.312c-.8.231-1.46.389-2.2.53l-.69.119A58.064,58.064,0,0,1,175.4,320.683Zm-96.8-.018a56.043,56.043,0,0,1-10.077-.906c-.682-.107-1.233-.209-1.735-.32l-.935-.246a63.3,63.3,0,0,1-8.459-2.554,6.921,6.921,0,0,0-1.392-.546,67.8,67.8,0,0,1-22.486-15.333c-8.126-8.173-15.353-18.906-21.482-31.9a153.859,153.859,0,0,1-8.193-21.993l-.874-3.08c-.622-2.272-1.218-4.61-1.769-6.947a132.147,132.147,0,0,1,5.872-60.451c8.215.907,16.826,2.215,25.6,3.883a1.155,1.155,0,0,0,.127.021c19.462,3.7,36.751,9.091,51.385,16.023,12.909,6.159,23.574,13.426,31.7,21.6.837.859,1.657,1.729,2.437,2.587A76.788,76.788,0,0,0,108,241.761l-.567,1.967a58.759,58.759,0,0,0-1.6,6.927,71.03,71.03,0,0,0,.233,26.243L86.854,257.59c-.053-.057-.11-.115-.167-.168l-23.2-23.377-.127-26.481-.033-.661a6.794,6.794,0,0,0-6.769-6.151H56.53a6.737,6.737,0,0,0-4.8,2.026,6.822,6.822,0,0,0-1.97,4.847l.057,12.676-19.02-19.1-.514-.468a6.784,6.784,0,0,0-9.108.476,6.884,6.884,0,0,0,.008,9.678l30.708,30.842,13.59,13.694-31.426-.148-.657.025a6.847,6.847,0,0,0,.592,13.662l45.139.214L116.083,306.3a56.668,56.668,0,0,1-33.026,14.191C81.578,320.608,80.08,320.665,78.6,320.665ZM127.02,209.8l0,0c-.477-.5-.965-1.012-1.458-1.52-9.263-9.313-21.226-17.5-35.558-24.342-14.26-6.756-30.806-12.137-49.18-15.994V117.879l20.448-30.99a23.811,23.811,0,0,1,3.091-.2H192.6l29.661,44.952v34.533c-22.056,3.95-41.632,9.922-58.19,17.756-14.2,6.7-26.156,14.877-35.529,24.3-.555.562-1.052,1.076-1.519,1.569Zm-18.158-77.489-.657.033A6.845,6.845,0,0,0,108.862,146H120.2v11.407l.029.661a6.8,6.8,0,0,0,13.578-.661V146H145.15l.653-.029a6.847,6.847,0,0,0-.653-13.657H133.809V120.9l-.033-.657a6.8,6.8,0,0,0-13.574.657v11.407ZM27.214,165.388h-.005c-5.009-.84-9.984-1.565-14.788-2.156A127.01,127.01,0,0,1,21.213,147.6l6-9.095v26.887Zm208.655-1.355V152.5c2.09,3.508,4.017,7.135,5.737,10.778-1.763.217-3.69.468-5.732.751ZM183.571,73H70.433l43.348-65.7a15.616,15.616,0,0,1,26.442,0l43.344,65.689Z" transform="translate(-0.002 0)" fill="#afe0c2" opacity="0.65"/></svg>