<svg xmlns="http://www.w3.org/2000/svg" width="254" height="438" viewBox="0 0 254 438"><path d="M127,438a15.7,15.7,0,0,1-13.224-7.3L70.429,365H183.571l-43.347,65.7A15.694,15.694,0,0,1,127,438Zm65.6-86.684H61.4l-38.729-58.7V225.434l.016-1.454A61.518,61.518,0,0,1,74.372,164.4l.972-.148H178.634c30.039,4.241,52.691,30.545,52.691,61.183v67.184l-38.726,58.7ZM80.543,273.605c-2.417,0-4.866.1-7.277.291-.506.041-.959.082-1.355.119l-1.4.164a6.739,6.739,0,0,0-4.614,2.848,6.807,6.807,0,0,0-1.089,5.327,64.82,64.82,0,0,0,1.862,6.759l.772,2.287A94.434,94.434,0,0,0,76.727,310.8a67.733,67.733,0,0,0,17.485,19,63.966,63.966,0,0,0,16.766,8.492,90.391,90.391,0,0,0,29.189,4.64c2.231,0,4.452-.073,6.6-.218.628-.042,1.2-.086,1.694-.131l.49-.049c.217-.019.443-.05.69-.094a6.761,6.761,0,0,0,3.58-1.893l.041-.041c.057-.057.106-.111.155-.164l.045-.049.025-.027.024-.026.71-.8c.871-1,2.309-2.73,4.213-5.24a146.792,146.792,0,0,0,10.671-16.179c10.415-18.293,15.7-36.42,15.7-53.878,0-17.512-5.49-35.574-16.317-53.685A142.353,142.353,0,0,0,157.4,194.473l-1.457-1.786c-1.923-2.318-3.178-3.666-3.756-4.262a6.78,6.78,0,0,0-9.761,0l-1.327,1.437c-1.155,1.286-2.5,2.88-3.886,4.611a143.438,143.438,0,0,0-11.084,15.973c-10.827,18.118-16.317,36.181-16.317,53.685a85.681,85.681,0,0,0,1.388,15.181c-.625-.255-1.263-.5-1.862-.723A82.539,82.539,0,0,0,80.543,273.605Zm53.464,55.4H134a75.113,75.113,0,0,1-18.659-3.687,50.453,50.453,0,0,1-13.215-6.656,54.159,54.159,0,0,1-13.917-15.222l-1.217-1.983a81.22,81.22,0,0,1-5.936-12.471l-.621-1.688,1.159.008a70.09,70.09,0,0,1,23.041,4.123,49.047,49.047,0,0,1,11.594,6.09l.154.108.067.048a129.4,129.4,0,0,0,10.267,20.519C129,321.915,131.447,325.55,134,329Zm14.2-3.923,0,0a132.823,132.823,0,0,1-9.9-14.054c-9.879-16.154-14.888-31.931-14.888-46.894,0-14.985,4.836-30.675,14.374-46.635a130.722,130.722,0,0,1,8.553-12.573l.959-1.224-.5-.632A127.743,127.743,0,0,1,156.823,217.5c9.538,15.953,14.374,31.643,14.374,46.635,0,15.04-4.677,30.879-13.9,47.078l-1.331,2.287c-2.122,3.567-4.453,7.094-6.928,10.483l-.823,1.1ZM9.058,266.992A131.825,131.825,0,0,1,.633,206.046,129.489,129.489,0,0,1,21.211,147.6l33.92-51.408a29.9,29.9,0,0,0-.706,6.469v36.5A6.833,6.833,0,0,0,61.231,146h6.805v5.671A75.4,75.4,0,0,0,9.066,225.434V266.99Zm235.887-.006-.009,0v-41.55a75.8,75.8,0,0,0-18.6-49.76,74.187,74.187,0,0,0-40.366-24V146h6.8a6.833,6.833,0,0,0,6.805-6.845v-36.5a29.9,29.9,0,0,0-.705-6.464l33.915,51.4a129.482,129.482,0,0,1,20.583,58.447A131.79,131.79,0,0,1,244.944,266.986ZM172.364,150.56H81.642V146h90.722v4.558Zm13.6-18.248H68.032V102.657A15.941,15.941,0,0,1,83.908,86.687H170.09l.874.025a15.919,15.919,0,0,1,15,15.945v29.655Zm1.243-53.779A29.067,29.067,0,0,0,170.09,73H83.908a29.134,29.134,0,0,0-17.1,5.513L113.778,7.305a15.62,15.62,0,0,1,26.445,0l46.992,71.222Z" transform="translate(-0.001 0)" fill="#3a2e20" opacity="0.1"/></svg>