<svg xmlns="http://www.w3.org/2000/svg" width="582" height="507.18" viewBox="0 0 582 507.18"><g transform="matrix(0.574, 0.819, -0.819, 0.574, 433.501, 0)"><path d="M429.586,521.33c15.071-26.839,30.958-30.241,50.17-49.126,9.658-9.492,15.649-23.751,5.049-35.325-13.552-14.8-54.088-9.952-60.408,5.952-.13.328-.266.632-.407.914,0,.048,0,.1,0,.145l-.07-.011c-1.931,3.766-4.585,3.229-5.189-.323-.916-5.4.13-7.175-2.54-13.806-6.8-16.877-24.566-21.718-40.41-15.139-27.04,11.227-11.334,39.871,1.455,55.462,23.872,29.1,32.286,46.047,36.716,83.821,4.671,39.827-3.4,72.73-26.66,105.336-21.5,30.144-57.361,52.245-94.348,34.253-38.5-18.725-35.076-69.907-31.408-105.88,2.982-29.259,11.994-53.909,13.351-83.486.587-12.79,1.806-33.764-1.283-45.992-5.943-23.506-16.354-48.324-24.659-71.1-13.931-38.206-7.143-73.985,25.982-99.31l-4.707,4.849c-26.317,27.677-31.2,57.557-17.515,93.042C261.5,408.4,272.34,433.193,278.662,456.8c3.464,12.935,2.529,33.962,2.078,47.546-1,29.985-9.711,54.482-12.39,83.912-2.924,32.113-6.582,81.592,28.054,98.039,30,14.245,58.957-1.571,78.183-25,33.173-40.428,39.629-85.7,26.157-135.742-7.377-27.41-18.8-36.418-34.312-58.086-45.188-63.144,47.735-85.576,56.833-31.945,15.164-16.965,57.275-16.752,67.79,3.22,8.539,16.221-1.476,29.785-13.7,39.805-21.024,17.231-29.778,19.071-47.766,42.781Z" transform="translate(-242.123 -175.777)" fill="#3a2e20" fill-rule="evenodd"/><path d="M250.027,338.175c-.343-30.576,8.649-87.259,34.394-107.047,15.99-12.292,41.226-5.365,47.252,14.295,3.927,12.81,2.6,42.527-1.947,55.1l-2.652,5.5c3.45-16.171,5.672-43.409.2-59.26-5.374-15.567-26.246-21.063-38.831-10.816C265.252,254.823,258,309.621,258.871,337.766c.112,2.443-2.977,10.124-5.421,10.238s-3.311-7.386-3.423-9.829Z" transform="translate(-235.927 -225)" fill="#a9804a" fill-rule="evenodd"/><path d="M295.577,267.132c3.48-12.565,16.951-37.944,33.232-28.7,7.864,4.464,8.7,15.144,7.005,25.4,6.9-7.562,15.3-12.464,23.87-3.671,5.508,5.647,5.487,10.543,5.122,17.688-1.4-4.794-2.053-9.513-5.667-13.2-7.48-7.644-17.938-.328-25.545,9.179-10.377,12.967-16.229,28.845-9.147,5.638l-.123-.079.259-.375c2.4-7.93,9.319-28.764,1.919-35.256-11.739-10.293-26.426,19.119-30.926,23.385Z" transform="translate(-200.171 -216.016)" fill="#a9804a" fill-rule="evenodd"/><path d="M330.047,292.29c-3.363-15.432-2.877-37.978,18.753-35.681,24.766,2.629,24.893,42.251,13.772,56.536l-3.655,3.345,1.815-4.392,2.311-6.911c3.259-12.285,1.64-36.316-12.671-41.538-18.9-6.9-18.007,17.35-20.326,28.641Z" transform="translate(-174.328 -200.319)" fill="#a9804a" fill-rule="evenodd"/><path d="M345.151,300.7c-.194-6.786,1.758-11.562,7.721-15.446,11.546-7.523,23.826-1.489,25.743,12.174,1.142,8.148.332,13.536-2.1,21.213l.12-.585a50.64,50.64,0,0,1-8.226,14.912c.562-6.118,1.535-7.664,3.175-13.37,2.038-7.089,2.8-28.52-6.784-31.383-9.941-2.97-15.557,5.665-19.651,12.485Z" transform="translate(-161.274 -180.28)" fill="#a9804a" fill-rule="evenodd"/><path d="M398.622,420.249c1.887-20.658,7.063-25.93,3.923-49.418-6.545-48.965-42.725-79.248-89.4-88.979-5.945-1.24-10.805-1.951-16.836-3.405,27.533-3.32,60.017,8.126,80.892,26.116,32.432,27.951,40.946,77.951,21.425,115.688Z" transform="translate(-199.599 -183.503)" fill="#a9804a" fill-rule="evenodd"/></g><text transform="translate(0 474.087)" fill="#a9804a" font-size="103" font-family="Philosopher-Regular, Philosopher" letter-spacing="0.028em"><tspan x="0" y="0">Reflekso</tspan><tspan y="0" fill="#3a2e20">love</tspan></text></svg>