<?xml version="1.0" encoding="utf-8"?>
<!-- Generator: Adobe Illustrator 24.2.1, SVG Export Plug-In . SVG Version: 6.00 Build 0)  -->
<svg version="1.1" id="Warstwa_1" xmlns="http://www.w3.org/2000/svg" xmlns:xlink="http://www.w3.org/1999/xlink" x="0px" y="0px"
	 viewBox="0 0 343.7 260.1" style="enable-background:new 0 0 343.7 260.1;" xml:space="preserve">
<style type="text/css">
	.st0{fill-rule:evenodd;clip-rule:evenodd;fill:#3A2E20;}
	.st1{fill-rule:evenodd;clip-rule:evenodd;fill:#A9804A;}
	.st2{fill:#A9804A;}
	.st3{fill:#3A2E20;}
</style>
<g>
	<path class="st0" d="M174.61,181.42c17.61-1.75,24.45,4.61,39.68,7.43c7.66,1.42,16.35-0.46,18.3-9.27
		c2.5-11.26-13.15-28.76-22.73-26.49c-0.2,0.05-0.39,0.08-0.56,0.11c-0.02,0.02-0.04,0.03-0.07,0.05l-0.02-0.04
		c-2.41,0.33-3.03-1.09-1.56-2.55c2.24-2.21,3.42-2.3,5.66-5.75c5.71-8.77,2.13-18.73-6.2-24.03c-14.21-9.03-22.52,7.81-25.64,18.98
		c-5.83,20.84-11.04,30.39-27.37,44.93c-17.22,15.33-35.38,22.38-58.4,22.18c-21.29-0.19-43.52-9.79-47.25-33.14
		c-3.88-24.31,21.36-39.57,39.51-49.71c14.76-8.24,29.35-12.13,43.72-21.24c6.22-3.94,16.5-10.28,21.24-15.77
		c9.11-10.55,17.37-23.64,25.35-35.06c13.4-19.16,32.49-27.76,55.34-20.51l-3.84-0.62c-21.72-3.27-37.4,4.29-49.6,22.43
		c-7.84,11.66-15.94,24.94-24.97,35.7c-4.95,5.9-15.16,12.39-21.71,16.66c-14.45,9.42-28.86,13.39-43.61,21.84
		c-16.09,9.21-40.6,23.81-36.92,45.54c3.18,18.83,20.18,27.25,37.56,28.58c29.98,2.29,53.43-9.6,72.56-32.45
		c10.48-12.51,10.95-20.87,16.04-35.32c14.84-42.11,56.05-5.74,33.79,16.23c12.99,1.55,26.78,21.45,20.84,32.99
		c-4.82,9.37-14.52,9.13-23.27,6.67C195.47,185.59,191.71,182.07,174.61,181.42L174.61,181.42z"/>
	<path class="st1" d="M226.89,23.13c14.29-10.24,43.95-24.7,61.76-19.1c11.06,3.48,16.12,17.65,8.85,26.97
		c-4.74,6.07-19.17,15.25-26.59,17.25l-3.47,0.57c8.75-3.71,22.32-11.64,27.98-19.45c5.56-7.66,1.26-19.31-7.71-21.86
		c-16.54-4.69-44.74,9.96-57.71,19.65c-1.11,0.86-5.75,1.94-6.61,0.82C222.53,26.87,225.77,23.99,226.89,23.13L226.89,23.13z"/>
	<path class="st1" d="M282.93,40.96c7.07-2.5,23.46-4.53,24.48,6.18c0.49,5.18-4.26,9.09-9.65,11.68c5.84,0.75,10.91,3.09,9.6,10.03
		c-0.84,4.46-3.16,6.06-6.64,8.25c1.8-2.24,3.8-4.1,4.35-7.02c1.13-6.04-5.76-8.56-12.75-9c-9.53-0.61-18.94,1.87-5.67-2.45l0-0.08
		l0.26,0c4.53-1.49,16.62-5.1,17.24-10.72C305.12,38.89,286.42,41.67,282.93,40.96L282.93,40.96z"/>
	<path class="st1" d="M283.58,82.84c6.16-6.67,16.94-13.88,22.99-2.93c6.93,12.53-11.69,25.66-22.09,25.13l-2.78-0.62l2.67-0.59
		l4.02-1.19c6.86-2.52,17.65-11.2,15.39-19.67C300.79,71.79,289.66,80.21,283.58,82.84L283.58,82.84z"/>
	<path class="st1" d="M279.47,105.48c3.13-2.33,6.03-2.98,9.82-1.46c7.35,2.96,8.56,10.73,2.76,16.14
		c-3.46,3.23-6.27,4.62-10.68,6.01l0.32-0.14c-3.43,0.87-6.19,1.27-9.74,1.04c3.07-1.75,4.12-1.8,7.34-2.91
		c4.01-1.38,14.35-8.09,12.54-13.54C289.95,104.96,284.03,105.16,279.47,105.48L279.47,105.48z"/>
	<path class="st1" d="M229.67,150.98c10.35-5.92,14.54-5.22,24.57-14.45c20.9-19.23,23.23-46.26,12.42-71.45
		c-1.38-3.21-2.64-5.73-3.95-9.05c10.64,11.87,15.97,30.95,14.38,46.71C274.63,127.23,253.88,147.73,229.67,150.98L229.67,150.98z"
		/>
	<path class="st2" d="M18.79,235.14c0.9,0,1.91-0.17,3.04-0.51c1.13-0.34,2.21-0.87,3.24-1.57c1.03-0.7,1.89-1.62,2.6-2.76
		c0.7-1.13,1.06-2.51,1.06-4.13c0-1.67-0.35-3.1-1.06-4.29c-0.7-1.2-1.57-2.16-2.6-2.88c-1.03-0.73-2.1-1.26-3.24-1.6
		c-1.13-0.34-2.15-0.51-3.04-0.51c-0.81,0-1.66,0.06-2.53,0.19c-0.88,0.13-1.63,0.28-2.28,0.45v16.98c0.64,0.17,1.4,0.32,2.28,0.45
		C17.13,235.07,17.97,235.14,18.79,235.14L18.79,235.14z M18.47,237.38h-4.49v19.55H8.21v-34.61c0-1.92-0.27-3.47-0.8-4.65
		c-0.53-1.17-1.76-1.76-3.69-1.76H2.44v-1.28h16.66c1.37,0,2.97,0.12,4.81,0.35c1.84,0.23,3.59,0.76,5.26,1.57
		c1.67,0.81,3.08,1.98,4.23,3.49c1.15,1.52,1.73,3.56,1.73,6.12c0,1.84-0.32,3.4-0.96,4.68c-0.64,1.28-1.46,2.34-2.47,3.17
		c-1,0.83-2.11,1.48-3.33,1.96c-1.22,0.47-2.38,0.83-3.49,1.09l6.73,11.22c0.81,1.37,1.57,2.5,2.27,3.4c0.7,0.9,1.4,1.63,2.08,2.21
		c0.68,0.58,1.37,0.99,2.05,1.25c0.68,0.26,1.43,0.43,2.24,0.51v1.28c-0.34,0.17-0.87,0.32-1.57,0.45c-0.7,0.13-1.46,0.19-2.28,0.19
		c-1.11,0-2.15-0.15-3.11-0.45c-0.96-0.3-1.89-0.81-2.79-1.54c-0.9-0.73-1.8-1.69-2.72-2.88c-0.92-1.2-1.89-2.67-2.92-4.42
		L18.47,237.38L18.47,237.38z M67.49,242.83H48.07c0,1.75,0.19,3.38,0.58,4.87c0.38,1.5,0.95,2.79,1.7,3.88
		c0.75,1.09,1.66,1.93,2.72,2.53c1.07,0.6,2.29,0.9,3.65,0.9c2.09,0,3.83-0.45,5.22-1.35c1.39-0.9,2.64-2.16,3.75-3.78l1.28,0.96
		c-1.45,2.44-3.13,4.17-5.03,5.19c-1.9,1.03-4.07,1.54-6.5,1.54c-2.26,0-4.23-0.42-5.9-1.25c-1.67-0.83-3.07-1.95-4.2-3.37
		c-1.13-1.41-1.98-3.06-2.53-4.97c-0.56-1.9-0.83-3.94-0.83-6.12s0.29-4.22,0.87-6.12c0.58-1.9,1.42-3.56,2.53-4.97
		c1.11-1.41,2.46-2.53,4.04-3.36c1.58-0.83,3.37-1.25,5.38-1.25c4.36,0,7.58,1.22,9.68,3.65c2.09,2.44,3.14,5.92,3.14,10.45
		L67.49,242.83L67.49,242.83z M61.53,240.26c0-3.72-0.56-6.57-1.67-8.56c-1.11-1.99-2.8-2.98-5.06-2.98c-0.98,0-1.88,0.29-2.69,0.87
		c-0.81,0.58-1.52,1.38-2.11,2.4c-0.6,1.03-1.07,2.24-1.41,3.65c-0.34,1.41-0.51,2.95-0.51,4.61H61.53L61.53,240.26z M87.1,216.55
		c-0.73,0-1.4,0.14-2.02,0.42c-0.62,0.28-1.16,0.74-1.63,1.38c-0.47,0.64-0.83,1.5-1.09,2.56c-0.26,1.07-0.38,2.39-0.38,3.97v1.92
		h8.97v2.56h-8.97v27.56h-5.77v-27.56h-4.49v-2.56h4.49v-1.92c0-2.22,0.33-4.05,0.99-5.48c0.66-1.43,1.52-2.54,2.56-3.33
		c1.05-0.79,2.24-1.34,3.59-1.63c1.35-0.3,2.7-0.45,4.07-0.45c2.65,0,4.46,0.32,5.45,0.96c0.47,0.34,0.88,0.75,1.22,1.22
		c0.34,0.47,0.68,1.03,1.03,1.67l-1.92,1.6C91.91,217.51,89.88,216.55,87.1,216.55L87.1,216.55z M102.61,256.92h-5.77v-34.61
		c0-1.92-0.27-3.47-0.8-4.65c-0.53-1.17-1.76-1.76-3.69-1.76h-1.28v-1.28h5.77c1.11,0,2.04,0.1,2.79,0.29
		c0.75,0.19,1.35,0.58,1.79,1.15c0.45,0.58,0.76,1.37,0.93,2.37c0.17,1,0.26,2.3,0.26,3.88V256.92L102.61,256.92z M135.87,242.83
		h-19.42c0,1.75,0.19,3.38,0.58,4.87c0.38,1.5,0.95,2.79,1.7,3.88c0.75,1.09,1.66,1.93,2.72,2.53c1.07,0.6,2.29,0.9,3.65,0.9
		c2.09,0,3.83-0.45,5.22-1.35c1.39-0.9,2.64-2.16,3.75-3.78l1.28,0.96c-1.45,2.44-3.13,4.17-5.03,5.19c-1.9,1.03-4.07,1.54-6.5,1.54
		c-2.26,0-4.23-0.42-5.9-1.25c-1.67-0.83-3.07-1.95-4.2-3.37c-1.13-1.41-1.98-3.06-2.53-4.97c-0.56-1.9-0.83-3.94-0.83-6.12
		s0.29-4.22,0.87-6.12c0.58-1.9,1.42-3.56,2.53-4.97c1.11-1.41,2.46-2.53,4.04-3.36c1.58-0.83,3.37-1.25,5.38-1.25
		c4.36,0,7.58,1.22,9.68,3.65c2.09,2.44,3.14,5.92,3.14,10.45L135.87,242.83L135.87,242.83z M129.91,240.26
		c0-3.72-0.56-6.57-1.67-8.56c-1.11-1.99-2.8-2.98-5.06-2.98c-0.98,0-1.88,0.29-2.69,0.87c-0.81,0.58-1.52,1.38-2.11,2.4
		c-0.6,1.03-1.07,2.24-1.41,3.65c-0.34,1.41-0.51,2.95-0.51,4.61H129.91L129.91,240.26z M149.14,241.22l8.01-10.25
		c0.98-1.24,2.09-2.24,3.33-3.01c1.24-0.77,2.91-1.15,5-1.15h1.92v1.6c-1.11,0-2.2,0.24-3.27,0.71c-1.07,0.47-2.01,1.2-2.82,2.18
		l-7.05,8.97l8.01,10.25c1.24,1.62,2.4,2.84,3.49,3.65c1.09,0.81,2.28,1.32,3.56,1.54v1.22c-0.34,0.17-0.8,0.32-1.38,0.45
		c-0.58,0.13-1.19,0.19-1.83,0.19c-1.62,0-3.21-0.37-4.77-1.12c-1.56-0.75-3.07-2.08-4.52-4.01l-7.69-10.25v14.74h-5.77v-34.61
		c0-1.92-0.27-3.47-0.8-4.65c-0.53-1.17-1.76-1.76-3.68-1.76h-1.28v-1.28h5.77c1.11,0,2.04,0.1,2.79,0.29
		c0.75,0.19,1.35,0.58,1.79,1.15c0.45,0.58,0.76,1.37,0.93,2.37c0.17,1,0.26,2.3,0.26,3.88V241.22L149.14,241.22z M195.73,249.23
		c0,1.37-0.29,2.56-0.86,3.59c-0.58,1.03-1.36,1.89-2.34,2.6c-0.98,0.71-2.17,1.24-3.56,1.6c-1.39,0.36-2.87,0.54-4.45,0.54
		c-2.56,0-4.66-0.22-6.28-0.67c-1.62-0.45-2.84-1.08-3.65-1.89c-0.81-0.81-1.28-1.73-1.41-2.76c-0.13-1.03-0.19-2.35-0.19-3.97h1.28
		c0.34,2.09,1.24,3.74,2.69,4.93c1.45,1.2,3.55,1.79,6.28,1.79c2.43,0,4.22-0.43,5.35-1.28c1.13-0.85,1.7-1.92,1.7-3.2
		c0-1.28-0.48-2.36-1.44-3.24s-2.4-1.72-4.33-2.53l-3.85-1.6c-2.44-0.98-4.33-2.15-5.67-3.49c-1.35-1.35-2.02-3.07-2.02-5.16
		c0-1.37,0.27-2.56,0.8-3.59c0.53-1.03,1.27-1.89,2.21-2.6c0.94-0.71,2.05-1.24,3.33-1.6c1.28-0.36,2.69-0.54,4.23-0.54
		c2.44,0,4.44,0.22,6.02,0.67c1.58,0.45,2.78,1.08,3.59,1.89c0.81,0.81,1.28,1.73,1.41,2.76c0.13,1.03,0.19,2.35,0.19,3.97h-1.28
		c-0.34-2.09-1.23-3.74-2.66-4.93c-1.43-1.2-3.43-1.79-5.99-1.79c-2.09,0-3.69,0.43-4.77,1.28c-1.09,0.85-1.63,1.92-1.63,3.2
		c0,1.11,0.45,2.13,1.35,3.04c0.9,0.92,2.16,1.72,3.78,2.4l3.85,1.6c2.73,1.11,4.81,2.33,6.22,3.65
		C195.03,245.24,195.73,247.01,195.73,249.23L195.73,249.23z M223.42,241.86c0-1.84-0.19-3.56-0.58-5.16
		c-0.38-1.6-0.93-2.99-1.63-4.17c-0.7-1.17-1.55-2.1-2.53-2.79c-0.98-0.68-2.07-1.03-3.27-1.03c-1.2,0-2.29,0.34-3.27,1.03
		c-0.98,0.68-1.83,1.61-2.53,2.79c-0.7,1.18-1.25,2.56-1.63,4.17c-0.38,1.6-0.58,3.32-0.58,5.16c0,1.84,0.19,3.56,0.58,5.16
		c0.38,1.6,0.93,2.99,1.63,4.17c0.7,1.17,1.55,2.1,2.53,2.79c0.98,0.68,2.07,1.03,3.27,1.03c1.2,0,2.29-0.34,3.27-1.03
		c0.98-0.68,1.83-1.61,2.53-2.79c0.7-1.18,1.25-2.56,1.63-4.17C223.23,245.42,223.42,243.7,223.42,241.86L223.42,241.86z
		 M201.31,241.86c0-2.18,0.31-4.22,0.93-6.12c0.62-1.9,1.54-3.56,2.76-4.97c1.22-1.41,2.69-2.53,4.42-3.36
		c1.73-0.83,3.73-1.25,5.99-1.25c2.22,0,4.21,0.42,5.96,1.25c1.75,0.83,3.24,1.95,4.45,3.36c1.22,1.41,2.14,3.07,2.76,4.97
		c0.62,1.9,0.93,3.94,0.93,6.12s-0.31,4.22-0.93,6.12c-0.62,1.9-1.54,3.56-2.76,4.97c-1.22,1.41-2.7,2.53-4.45,3.37
		c-1.75,0.83-3.74,1.25-5.96,1.25c-2.26,0-4.26-0.42-5.99-1.25c-1.73-0.83-3.2-1.95-4.42-3.37c-1.22-1.41-2.14-3.06-2.76-4.97
		C201.62,246.08,201.31,244.04,201.31,241.86L201.31,241.86z"/>
	<path class="st3" d="M243.03,256.92h-5.77v-34.61c0-1.92-0.27-3.47-0.8-4.65c-0.53-1.17-1.76-1.76-3.69-1.76h-1.28v-1.28h5.77
		c1.11,0,2.04,0.1,2.79,0.29c0.75,0.19,1.35,0.58,1.79,1.15c0.45,0.58,0.76,1.37,0.93,2.37c0.17,1,0.26,2.3,0.26,3.88V256.92
		L243.03,256.92z M272.89,241.86c0-1.84-0.19-3.56-0.58-5.16c-0.38-1.6-0.93-2.99-1.63-4.17c-0.7-1.17-1.55-2.1-2.53-2.79
		c-0.98-0.68-2.07-1.03-3.27-1.03c-1.2,0-2.29,0.34-3.27,1.03c-0.98,0.68-1.83,1.61-2.53,2.79c-0.7,1.18-1.25,2.56-1.63,4.17
		c-0.38,1.6-0.58,3.32-0.58,5.16c0,1.84,0.19,3.56,0.58,5.16c0.38,1.6,0.93,2.99,1.63,4.17c0.71,1.17,1.55,2.1,2.53,2.79
		c0.98,0.68,2.07,1.03,3.27,1.03c1.2,0,2.29-0.34,3.27-1.03c0.98-0.68,1.83-1.61,2.53-2.79c0.71-1.18,1.25-2.56,1.63-4.17
		C272.7,245.42,272.89,243.7,272.89,241.86L272.89,241.86z M250.78,241.86c0-2.18,0.31-4.22,0.93-6.12c0.62-1.9,1.54-3.56,2.76-4.97
		s2.69-2.53,4.42-3.36c1.73-0.83,3.73-1.25,5.99-1.25c2.22,0,4.21,0.42,5.96,1.25c1.75,0.83,3.24,1.95,4.45,3.36
		c1.22,1.41,2.14,3.07,2.76,4.97c0.62,1.9,0.93,3.94,0.93,6.12s-0.31,4.22-0.93,6.12c-0.62,1.9-1.54,3.56-2.76,4.97
		c-1.22,1.41-2.7,2.53-4.45,3.37c-1.75,0.83-3.74,1.25-5.96,1.25c-2.26,0-4.26-0.42-5.99-1.25c-1.73-0.83-3.2-1.95-4.42-3.37
		c-1.22-1.41-2.14-3.06-2.76-4.97C251.09,246.08,250.78,244.04,250.78,241.86L250.78,241.86z M299.55,247.95l8.97-21.15h3.2
		l-13.14,30.76h-1.28l-9.93-23.39c-0.51-1.2-1-2.2-1.47-3.01c-0.47-0.81-0.96-1.47-1.47-1.99c-0.51-0.51-1.07-0.9-1.67-1.15
		c-0.6-0.26-1.28-0.41-2.05-0.45v-1.28c0.17,0,0.5-0.02,0.99-0.06c0.49-0.04,0.89-0.06,1.19-0.06c0.94,0,1.91,0.11,2.92,0.32
		c1,0.21,1.98,0.61,2.92,1.19c0.94,0.58,1.84,1.39,2.69,2.44c0.85,1.05,1.64,2.4,2.37,4.07L299.55,247.95L299.55,247.95z
		 M340.76,242.83h-19.42c0,1.75,0.19,3.38,0.58,4.87c0.38,1.5,0.95,2.79,1.7,3.88c0.75,1.09,1.66,1.93,2.72,2.53
		c1.07,0.6,2.29,0.9,3.65,0.9c2.09,0,3.83-0.45,5.22-1.35c1.39-0.9,2.64-2.16,3.75-3.78l1.28,0.96c-1.45,2.44-3.13,4.17-5.03,5.19
		c-1.9,1.03-4.07,1.54-6.5,1.54c-2.26,0-4.23-0.42-5.9-1.25c-1.67-0.83-3.07-1.95-4.2-3.37c-1.13-1.41-1.98-3.06-2.53-4.97
		c-0.56-1.9-0.83-3.94-0.83-6.12s0.29-4.22,0.87-6.12c0.58-1.9,1.42-3.56,2.53-4.97c1.11-1.41,2.46-2.53,4.04-3.36
		c1.58-0.83,3.37-1.25,5.38-1.25c4.36,0,7.58,1.22,9.68,3.65c2.09,2.44,3.14,5.92,3.14,10.45L340.76,242.83L340.76,242.83z
		 M334.8,240.26c0-3.72-0.56-6.57-1.67-8.56c-1.11-1.99-2.8-2.98-5.06-2.98c-0.98,0-1.88,0.29-2.69,0.87
		c-0.81,0.58-1.52,1.38-2.11,2.4c-0.6,1.03-1.07,2.24-1.41,3.65c-0.34,1.41-0.51,2.95-0.51,4.61H334.8L334.8,240.26z"/>
</g>
</svg>
