<svg xmlns="http://www.w3.org/2000/svg" width="350.785" height="388.207" viewBox="0 0 350.785 388.207"><g transform="translate(1 1)"><path d="M.572,123.082C.229,117.764,0,109.3,0,105.013c0-64.3,40.785-93.4,58.47-102.988a16.934,16.934,0,0,1,16.176.063c15.97,8.7,50.419,33.134,57.092,84.686" transform="translate(38.596 28.337)" fill="none" stroke="#9bc1a2" stroke-linecap="round" stroke-linejoin="round" stroke-miterlimit="10" stroke-width="2"/><path d="M.07,0S3.1,17.325,4.987,39.681" transform="translate(107.367 111.738)" fill="none" stroke="#9bc1a2" stroke-linecap="round" stroke-linejoin="round" stroke-miterlimit="10" stroke-width="2"/><path d="M263.017,233.359H85.766C38.4,233.359,0,187.264,0,130.407V0H348.784V130.407C348.784,187.264,310.383,233.359,263.017,233.359Z" transform="translate(0 152.848)" fill="none" stroke="#000" stroke-linecap="round" stroke-linejoin="round" stroke-miterlimit="10" stroke-width="2" opacity="0.3"/><path d="M0,152.95l36.136-36.308L138.942,13.037a44.173,44.173,0,0,1,62.667,0,44.934,44.934,0,0,1,0,63.181l-72.844,73.359" transform="translate(134.197 0)" fill="none" stroke="#a9804a" stroke-linecap="round" stroke-linejoin="round" stroke-miterlimit="10" stroke-width="2"/><line x2="0.095" y2="188.397" transform="translate(223.297 191.526)" fill="none" stroke="#000" stroke-width="2" opacity="0.25"/><line x2="0.803" y2="188.397" transform="translate(114.59 191.526)" fill="none" stroke="#000" stroke-width="2" opacity="0.25"/><line x2="335.219" transform="translate(5.58 185.104)" fill="none" stroke="#000" stroke-width="2" opacity="0.25"/></g></svg>